<svg width="50" height="50" viewBox="0 0 50 50" fill="none" xmlns="http://www.w3.org/2000/svg">
<circle cx="25" cy="25" r="25" fill="#C8D6EA"/>
<path d="M28.875 24.5H21.5834M28.875 18.6667H21.5834M34.7084 31.7917V14.2917C34.7084 13.5181 34.4011 12.7763 33.8541 12.2293C33.3071 11.6823 32.5652 11.375 31.7917 11.375H12.8334M12.8334 11.375C13.6069 11.375 14.3488 11.6823 14.8957 12.2293C15.4427 12.7763 15.75 13.5181 15.75 14.2917V34.7083C15.75 35.4819 16.0573 36.2237 16.6043 36.7707C17.1513 37.3177 17.8931 37.625 18.6667 37.625M12.8334 11.375C12.0598 11.375 11.3179 11.6823 10.771 12.2293C10.224 12.7763 9.91669 13.5181 9.91669 14.2917V17.2083C9.91669 17.5951 10.0703 17.966 10.3438 18.2395C10.6173 18.513 10.9882 18.6667 11.375 18.6667H15.75M18.6667 37.625H36.1667C36.9402 37.625 37.6821 37.3177 38.2291 36.7707C38.7761 36.2237 39.0834 35.4819 39.0834 34.7083V33.25C39.0834 32.8632 38.9297 32.4923 38.6562 32.2188C38.3827 31.9453 38.0118 31.7917 37.625 31.7917H23.0417C22.6549 31.7917 22.284 31.9453 22.0105 32.2188C21.737 32.4923 21.5834 32.8632 21.5834 33.25V34.7083C21.5834 35.4819 21.2761 36.2237 20.7291 36.7707C20.1821 37.3177 19.4402 37.625 18.6667 37.625Z" stroke="#3B82F6" stroke-width="2" stroke-linecap="round" stroke-linejoin="round"/>
</svg>
